<mxfile host="app.diagrams.net" agent="Mozilla/5.0 (Windows NT 10.0; Win64; x64) AppleWebKit/537.36 (KHTML, like Gecko) Chrome/136.0.0.0 Safari/537.36 Edg/136.0.0.0" version="27.0.6">
  <diagram name="High Level" id="kDHAMI8vfA3kL-J-4AEr">
    <mxGraphModel dx="2071" dy="668" grid="1" gridSize="10" guides="1" tooltips="1" connect="1" arrows="1" fold="1" page="1" pageScale="1" pageWidth="827" pageHeight="1169" math="0" shadow="0">
      <root>
        <mxCell id="0" />
        <mxCell id="1" parent="0" />
        <mxCell id="q3kBi8KNVVEpbpXcGzCK-30" value="" style="rounded=0;whiteSpace=wrap;html=1;shadow=1;" vertex="1" parent="1">
          <mxGeometry y="10" width="940" height="630" as="geometry" />
        </mxCell>
        <mxCell id="q3kBi8KNVVEpbpXcGzCK-2" value="CARTO" style="swimlane;fontStyle=1;align=center;verticalAlign=middle;childLayout=stackLayout;horizontal=1;startSize=29;horizontalStack=0;resizeParent=1;resizeParentMax=0;resizeLast=0;collapsible=0;marginBottom=0;html=1;whiteSpace=wrap;" vertex="1" parent="1">
          <mxGeometry x="380" y="120" width="140" height="129" as="geometry" />
        </mxCell>
        <mxCell id="q3kBi8KNVVEpbpXcGzCK-6" value="TestDocuments" style="text;html=1;strokeColor=none;fillColor=none;align=left;verticalAlign=middle;spacingLeft=4;spacingRight=4;overflow=hidden;rotatable=0;points=[[0,0.5],[1,0.5]];portConstraint=eastwest;whiteSpace=wrap;" vertex="1" parent="q3kBi8KNVVEpbpXcGzCK-2">
          <mxGeometry y="29" width="140" height="25" as="geometry" />
        </mxCell>
        <mxCell id="q3kBi8KNVVEpbpXcGzCK-7" value="XKTestDocuments" style="text;html=1;strokeColor=none;fillColor=none;align=left;verticalAlign=middle;spacingLeft=4;spacingRight=4;overflow=hidden;rotatable=0;points=[[0,0.5],[1,0.5]];portConstraint=eastwest;whiteSpace=wrap;" vertex="1" parent="q3kBi8KNVVEpbpXcGzCK-2">
          <mxGeometry y="54" width="140" height="25" as="geometry" />
        </mxCell>
        <mxCell id="q3kBi8KNVVEpbpXcGzCK-10" value="TraceTestDocuments" style="text;html=1;strokeColor=none;fillColor=none;align=left;verticalAlign=middle;spacingLeft=4;spacingRight=4;overflow=hidden;rotatable=0;points=[[0,0.5],[1,0.5]];portConstraint=eastwest;whiteSpace=wrap;" vertex="1" parent="q3kBi8KNVVEpbpXcGzCK-2">
          <mxGeometry y="79" width="140" height="25" as="geometry" />
        </mxCell>
        <mxCell id="q3kBi8KNVVEpbpXcGzCK-5" value="Machines" style="text;html=1;strokeColor=default;fillColor=none;align=left;verticalAlign=middle;spacingLeft=4;spacingRight=4;overflow=hidden;rotatable=0;points=[[0,0.5],[1,0.5]];portConstraint=eastwest;whiteSpace=wrap;rounded=0;" vertex="1" parent="q3kBi8KNVVEpbpXcGzCK-2">
          <mxGeometry y="104" width="140" height="25" as="geometry" />
        </mxCell>
        <mxCell id="q3kBi8KNVVEpbpXcGzCK-8" value="CAESAR" style="swimlane;fontStyle=1;align=center;verticalAlign=middle;childLayout=stackLayout;horizontal=1;startSize=29;horizontalStack=0;resizeParent=1;resizeParentMax=0;resizeLast=0;collapsible=0;marginBottom=0;html=1;whiteSpace=wrap;" vertex="1" parent="1">
          <mxGeometry x="380" y="350" width="140" height="79" as="geometry" />
        </mxCell>
        <mxCell id="q3kBi8KNVVEpbpXcGzCK-9" value="TestDocuments" style="text;html=1;strokeColor=none;fillColor=none;align=left;verticalAlign=middle;spacingLeft=4;spacingRight=4;overflow=hidden;rotatable=0;points=[[0,0.5],[1,0.5]];portConstraint=eastwest;whiteSpace=wrap;" vertex="1" parent="q3kBi8KNVVEpbpXcGzCK-8">
          <mxGeometry y="29" width="140" height="25" as="geometry" />
        </mxCell>
        <mxCell id="q3kBi8KNVVEpbpXcGzCK-11" value="Machines" style="text;html=1;strokeColor=default;fillColor=none;align=left;verticalAlign=middle;spacingLeft=4;spacingRight=4;overflow=hidden;rotatable=0;points=[[0,0.5],[1,0.5]];portConstraint=eastwest;whiteSpace=wrap;" vertex="1" parent="q3kBi8KNVVEpbpXcGzCK-8">
          <mxGeometry y="54" width="140" height="25" as="geometry" />
        </mxCell>
        <mxCell id="q3kBi8KNVVEpbpXcGzCK-13" value="Machine" style="swimlane;fontStyle=1;align=center;verticalAlign=middle;childLayout=stackLayout;horizontal=1;startSize=29;horizontalStack=0;resizeParent=1;resizeParentMax=0;resizeLast=0;collapsible=0;marginBottom=0;html=1;whiteSpace=wrap;" vertex="1" parent="1">
          <mxGeometry x="680" y="280" width="140" height="54" as="geometry" />
        </mxCell>
        <mxCell id="q3kBi8KNVVEpbpXcGzCK-16" value="Machines" style="text;html=1;strokeColor=none;fillColor=none;align=left;verticalAlign=middle;spacingLeft=4;spacingRight=4;overflow=hidden;rotatable=0;points=[[0,0.5],[1,0.5]];portConstraint=eastwest;whiteSpace=wrap;" vertex="1" parent="q3kBi8KNVVEpbpXcGzCK-13">
          <mxGeometry y="29" width="140" height="25" as="geometry" />
        </mxCell>
        <mxCell id="q3kBi8KNVVEpbpXcGzCK-17" style="edgeStyle=orthogonalEdgeStyle;rounded=0;orthogonalLoop=1;jettySize=auto;html=1;" edge="1" parent="1" source="q3kBi8KNVVEpbpXcGzCK-5" target="q3kBi8KNVVEpbpXcGzCK-16">
          <mxGeometry relative="1" as="geometry" />
        </mxCell>
        <mxCell id="q3kBi8KNVVEpbpXcGzCK-18" style="edgeStyle=orthogonalEdgeStyle;rounded=0;orthogonalLoop=1;jettySize=auto;html=1;" edge="1" parent="1" source="q3kBi8KNVVEpbpXcGzCK-11" target="q3kBi8KNVVEpbpXcGzCK-16">
          <mxGeometry relative="1" as="geometry" />
        </mxCell>
        <mxCell id="q3kBi8KNVVEpbpXcGzCK-23" style="edgeStyle=elbowEdgeStyle;rounded=0;orthogonalLoop=1;jettySize=auto;html=1;elbow=vertical;" edge="1" parent="1" source="q3kBi8KNVVEpbpXcGzCK-19" target="q3kBi8KNVVEpbpXcGzCK-2">
          <mxGeometry relative="1" as="geometry" />
        </mxCell>
        <mxCell id="q3kBi8KNVVEpbpXcGzCK-19" value="Capture" style="rounded=1;whiteSpace=wrap;html=1;fillColor=#dae8fc;strokeColor=#6c8ebf;shadow=1;" vertex="1" parent="1">
          <mxGeometry x="30" y="120" width="120" height="60" as="geometry" />
        </mxCell>
        <mxCell id="q3kBi8KNVVEpbpXcGzCK-25" style="edgeStyle=elbowEdgeStyle;rounded=0;orthogonalLoop=1;jettySize=auto;html=1;" edge="1" parent="1" source="q3kBi8KNVVEpbpXcGzCK-20" target="q3kBi8KNVVEpbpXcGzCK-2">
          <mxGeometry relative="1" as="geometry" />
        </mxCell>
        <mxCell id="q3kBi8KNVVEpbpXcGzCK-26" style="edgeStyle=elbowEdgeStyle;rounded=0;orthogonalLoop=1;jettySize=auto;html=1;" edge="1" parent="1" source="q3kBi8KNVVEpbpXcGzCK-20" target="q3kBi8KNVVEpbpXcGzCK-8">
          <mxGeometry relative="1" as="geometry" />
        </mxCell>
        <mxCell id="q3kBi8KNVVEpbpXcGzCK-20" value="Explore" style="rounded=1;whiteSpace=wrap;html=1;fillColor=#d5e8d4;strokeColor=#82b366;shadow=1;" vertex="1" parent="1">
          <mxGeometry x="30" y="250" width="120" height="60" as="geometry" />
        </mxCell>
        <mxCell id="q3kBi8KNVVEpbpXcGzCK-27" style="edgeStyle=elbowEdgeStyle;rounded=0;orthogonalLoop=1;jettySize=auto;html=1;elbow=vertical;" edge="1" parent="1" source="q3kBi8KNVVEpbpXcGzCK-21" target="q3kBi8KNVVEpbpXcGzCK-8">
          <mxGeometry relative="1" as="geometry" />
        </mxCell>
        <mxCell id="q3kBi8KNVVEpbpXcGzCK-21" value="Ballbar" style="rounded=1;whiteSpace=wrap;html=1;fillColor=#e1d5e7;strokeColor=#9673a6;" vertex="1" parent="1">
          <mxGeometry x="30" y="394" width="120" height="60" as="geometry" />
        </mxCell>
        <mxCell id="q3kBi8KNVVEpbpXcGzCK-29" style="edgeStyle=orthogonalEdgeStyle;rounded=0;orthogonalLoop=1;jettySize=auto;html=1;dashed=1;dashPattern=8 8;" edge="1" parent="1" source="q3kBi8KNVVEpbpXcGzCK-28" target="q3kBi8KNVVEpbpXcGzCK-2">
          <mxGeometry relative="1" as="geometry" />
        </mxCell>
        <mxCell id="q3kBi8KNVVEpbpXcGzCK-28" value="&lt;span style=&quot;text-align: left;&quot;&gt;TraceTestDocuments should be moved to CAESAR as its Ballbar related database&lt;/span&gt;" style="shape=note;whiteSpace=wrap;html=1;backgroundOutline=1;darkOpacity=0.05;" vertex="1" parent="1">
          <mxGeometry x="660" y="80" width="160" height="100" as="geometry" />
        </mxCell>
      </root>
    </mxGraphModel>
  </diagram>
</mxfile>
